<?xml version="1.0" standalone="no"?>
<!DOCTYPE svg PUBLIC "-//W3C//DTD SVG 20010904//EN"
 "http://www.w3.org/TR/2001/REC-SVG-20010904/DTD/svg10.dtd">
<svg version="1.0" xmlns="http://www.w3.org/2000/svg"
 width="201.000000pt" height="201.000000pt" viewBox="0 0 201.000000 201.000000"
 preserveAspectRatio="xMidYMid meet">
<metadata>
Created by potrace 1.11, written by Peter Selinger 2001-2013
</metadata>
<g transform="translate(0.000000,201.000000) scale(0.100000,-0.100000)"
fill="#000000" stroke="none">
<path d="M865 1771 c-11 -4 -30 -13 -41 -21 -11 -8 -115 -177 -231 -375 -115
-198 -293 -502 -395 -675 -102 -173 -188 -325 -192 -338 -20 -61 41 -128 108
-120 26 3 434 260 991 623 103 67 123 77 129 67 3 -5 48 -119 101 -253 59
-149 106 -254 121 -269 33 -33 96 -33 130 1 12 13 81 150 152 304 71 154 153
330 182 390 102 216 107 240 61 286 -53 53 -83 44 -271 -77 -91 -59 -221 -143
-290 -187 -69 -44 -134 -86 -146 -93 -23 -16 -6 -55 -200 436 -112 285 -137
320 -209 301z m68 -84 c8 -18 72 -176 142 -352 70 -176 129 -325 132 -331 5
-14 -1080 -714 -1107 -714 -28 0 -52 29 -46 55 3 13 47 92 97 176 50 85 103
175 118 200 14 25 150 258 301 517 213 365 281 473 300 480 34 12 46 6 63 -31z
m1015 -329 c23 -23 15 -47 -85 -258 -25 -52 -102 -216 -170 -365 -68 -148
-133 -279 -144 -290 -18 -18 -22 -19 -45 -5 -21 12 -46 63 -129 273 l-104 258
127 82 c70 46 183 119 252 162 69 44 150 97 180 117 57 38 97 47 118 26z"/>
</g>
</svg>
